:version 1.10
:name ASF
:units
  mass 1
  length 1
  angle deg
:documentation
  ASF file generated by Kaydara
:root
  axis xyz
  order  tx ty tz rx ry rz
  position 0 0 0
  orientation 0 0 0
:bonedata
  begin
    id 1
    name SpineDummy
    direction 0.999998 -0.00179978 1.38929e-006
    length 3.60008
    axis 0 0 0 xyz
  end
  begin
    id 2
    name Spine
    direction 0.964365 0.262802 0.0305839
    length 8.13928
    axis 1.33928 -1.75354 15.2838 xyz
    dof rx ry rz
  end
  begin
    id 3
    name Spine1
    direction 0.811168 0.572065 0.12144
    length 7.14954
    axis 2.2224 -6.9761 35.2157 xyz
    dof rx ry rz
  end
  begin
    id 4
    name Neck
    direction 0 0 0
    length 0
    axis 2.2224 -6.9761 35.2157 xyz
    dof rx ry rz
  end
  begin
    id 5
    name HeadDummy
    direction 0.810939 0.572387 0.121455
    length 3.55534
    axis 2.2224 -6.9761 35.2157 xyz
  end
  begin
    id 6
    name Head
    direction 0.998226 -0.000232542 0.0595419
    length 7.35666
    axis -3.03688 -3.41352 -0.0133467 xyz
    dof rx ry rz
  end
  begin
    id 7
    name R_ClavicleDummy
    direction 0.531669 -0.194489 -0.824319
    length 2.49392
    axis 2.2224 -6.9761 35.2157 xyz
  end
  begin
    id 8
    name R_Clavicle
    direction -0.155119 0.0480802 -0.986725
    length 4.485
    axis -54.2764 80.6538 162.779 xyz
    dof rx ry rz
  end
  begin
    id 9
    name R_UpperArm
    direction -0.955567 0.200068 -0.216484
    length 10.1122
    axis -72.9943 12.5026 168.175 xyz
    dof rx ry rz
  end
  begin
    id 10
    name R_Forearm
    direction -0.61433 0.385743 0.688332
    length 9.39148
    axis -117.015 -43.4982 147.875 xyz
    dof rx ry rz
  end
  begin
    id 11
    name R_Hand
    direction -0.699429 0.0170333 0.714499
    length 3.66324
    axis -45.0303 -36.7097 175.478 xyz
    dof rx ry rz
  end
  begin
    id 12
    name L_ClavicleDummy
    direction 0.40287 -0.36502 0.839319
    length 2.49392
    axis 2.2224 -6.9761 35.2157 xyz
  end
  begin
    id 13
    name L_Clavicle
    direction -0.231271 -0.0726419 0.970174
    length 4.485
    axis 18.4357 -75.9711 -162.563 xyz
    dof rx ry rz
  end
  begin
    id 14
    name L_UpperArm
    direction -0.917494 0.144359 0.370629
    length 10.1122
    axis 56.0417 -21.7544 171.058 xyz
    dof rx ry rz
  end
  begin
    id 15
    name L_Forearm
    direction -0.496786 0.615074 -0.612281
    length 9.39148
    axis 89.8094 37.7546 128.927 xyz
    dof rx ry rz
  end
  begin
    id 16
    name L_Hand
    direction -0.409932 0.64962 -0.640274
    length 3.66324
    axis -0.424369 32.133 128.52 xyz
    dof rx ry rz
  end
  begin
    id 17
    name L_ThighDummy
    direction -1.84081e-006 1.87549e-006 1
    length 3.13049
    axis 0 0 0 xyz
  end
  begin
    id 18
    name L_Thigh
    direction -0.947739 0.307978 0.083308
    length 17.9961
    axis 173.219 -4.77873 161.998 xyz
    dof rx ry rz
  end
  begin
    id 19
    name L_Calf
    direction -0.728814 -0.684427 0.0197583
    length 13.3367
    axis 167.331 -1.13214 -136.799 xyz
    dof rx ry rz
  end
  begin
    id 20
    name L_Foot
    direction -0.9028 0.418719 0.0981191
    length 5.8674
    axis 163.436 11.5135 -155.37 xyz
    dof rx ry rz
  end
  begin
    id 21
    name L_Toe0
    direction -0.35341 0.886259 0.299411
    length 4.75286
    axis 169.316 -17.4222 111.74 xyz
    dof rx ry rz
  end
  begin
    id 22
    name R_ThighDummy
    direction 9.32778e-007 -8.82053e-007 -1
    length 3.13049
    axis 0 0 0 xyz
  end
  begin
    id 23
    name R_Thigh
    direction -0.925064 0.37528 -0.0585023
    length 17.9961
    axis -178.698 3.35385 157.919 xyz
    dof rx ry rz
  end
  begin
    id 24
    name R_Calf
    direction -0.68969 -0.718776 -0.0876886
    length 13.3367
    axis -160.504 5.03065 -133.817 xyz
    dof rx ry rz
  end
  begin
    id 25
    name R_Foot
    direction -0.857405 0.418858 -0.299022
    length 5.8674
    axis -161.328 4.38911 -154.413 xyz
    dof rx ry rz
  end
  begin
    id 26
    name R_Toe0
    direction -0.100745 0.952789 -0.286433
    length 4.75286
    axis 171.683 16.6445 96.0359 xyz
    dof rx ry rz
  end
:hierarchy
  begin
    root SpineDummy L_ThighDummy R_ThighDummy
    SpineDummy Spine
    Spine Spine1
    Spine1 Neck
    Neck HeadDummy R_ClavicleDummy L_ClavicleDummy
    HeadDummy Head
    R_ClavicleDummy R_Clavicle
    R_Clavicle R_UpperArm
    R_UpperArm R_Forearm
    R_Forearm R_Hand
    L_ClavicleDummy L_Clavicle
    L_Clavicle L_UpperArm
    L_UpperArm L_Forearm
    L_Forearm L_Hand
    L_ThighDummy L_Thigh
    L_Thigh L_Calf
    L_Calf L_Foot
    L_Foot L_Toe0
    R_ThighDummy R_Thigh
    R_Thigh R_Calf
    R_Calf R_Foot
    R_Foot R_Toe0
  end

:SAMPLES-PER-SECOND 30
:FULLY-SPECIFIED
:DEGREES
162
root  -2.32539 32.5452 64.6277 36.7272 -0.378986 82.5485
Spine  -1.43315 2.00758 -11.2566
Spine1  -1.01777 12.2643 4.21289
Neck  3.97569e-016 0 -2.38542e-015
Head  33.3306 -6.78599 15.4756
R_Clavicle  0.42009 -18.7745 2.06972
R_UpperArm  3.37302 4.40451 20.7778
R_Forearm  24.7746 -23.4219 20.2932
R_Hand  -1.15789 8.60322 -20.1629
L_Clavicle  -0.777676 21.9883 -2.62105
L_UpperArm  -1.40558 12.9054 22.5373
L_Forearm  -19.5372 25.4288 33.3002
L_Hand  -0.11786 -3.82113 -8.22675
L_Thigh  -1.84659 13.1539 5.13207
L_Calf  8.58493 -3.82181 28.0785
L_Foot  -1.06057 2.25554 -7.44727
L_Toe0  0.505156 0.034446 -6.1361
R_Thigh  -26.3202 9.79486 -17.3564
R_Calf  -9.44427 7.98545 25.7571
R_Foot  -1.04991 -1.893 3.7191
R_Toe0  -0.00851955 -0.262917 -12.7159
163
root  -1.72483 32.4351 65.4497 32.456 0.577729 83.75
Spine  -2.00898 0.194095 -9.13248
Spine1  -1.3543 10.6792 5.97936
Neck  3.97569e-016 0 -2.38542e-015
Head  27.0433 -3.95981 13.4199
R_Clavicle  0.405339 -18.3311 1.67164
R_UpperArm  13.3468 2.0193 20.5171
R_Forearm  27.6533 -24.6508 20.5484
R_Hand  -1.42794 9.21864 -22.123
L_Clavicle  -0.609708 18.3495 -4.01101
L_UpperArm  -2.00315 9.93597 18.566
L_Forearm  -18.0892 24.8507 32.3295
L_Hand  -0.125184 -3.42698 -7.06702
L_Thigh  -8.20292 12.0333 5.02793
L_Calf  9.84546 -3.31171 24.8003
L_Foot  0.0945175 5.25769 -4.86848
L_Toe0  0.505156 0.034446 -6.1361
R_Thigh  -21.8234 7.52404 -13.4124
R_Calf  -7.22272 6.26044 19.8557
R_Foot  -0.570919 -1.34726 1.47321
R_Toe0  2.78907 -0.592716 -9.56697
164
root  -1.12693 32.3188 66.3278 27.5869 1.6899 85.2975
Spine  -2.75609 -2.4069 -8.48733
Spine1  -1.67155 9.73245 8.29515
Neck  3.97569e-016 0 -2.38542e-015
Head  21.1252 -2.51143 12.7763
R_Clavicle  0.391782 -17.5038 1.44528
R_UpperArm  15.1588 0.66575 20.0788
R_Forearm  31.9928 -25.2979 20.604
R_Hand  -1.6631 9.56281 -23.7436
L_Clavicle  -0.415214 15.5138 -4.91043
L_UpperArm  -4.77781 6.31031 16.3396
L_Forearm  -16.9427 23.3429 29.8846
L_Hand  -0.154327 -2.82372 -6.68119
L_Thigh  -13.6584 10.5819 4.54562
L_Calf  9.29964 -3.02845 22.6629
L_Foot  0.614243 5.69418 -3.1329
L_Toe0  0.505156 0.034446 -6.1361
R_Thigh  -13.5074 4.58428 -8.31713
R_Calf  1.84369 4.35379 13.6154
R_Foot  -1.06532 -4.12861 -0.805142
R_Toe0  8.22077 -1.23524 -10.9984
165
root  -0.585505 32.1356 67.2147 22.9868 2.49676 86.6085
Spine  -3.38929 -5.07397 -8.7264
Spine1  -1.72185 10.1642 10.9048
Neck  3.97569e-016 0 -2.38542e-015
Head  15.5973 -3.38537 12.7818
R_Clavicle  0.371721 -17.0128 1.09545
R_UpperArm  10.3145 0.952458 20.679
R_Forearm  34.6128 -25.291 20.4796
R_Hand  -1.75097 9.65881 -24.3417
L_Clavicle  -0.410463 15.3891 -4.5492
L_UpperArm  -5.53029 -0.378659 13.9675
L_Forearm  -17.3324 22.2364 28.1626
L_Hand  -0.167299 -2.72581 -6.93694
L_Thigh  -17.6168 9.2056 4.70456
L_Calf  7.31732 -2.68979 20.1097
L_Foot  0.860861 5.28853 -1.78765
L_Toe0  0.505156 0.034446 -6.1361
R_Thigh  -4.9358 2.27143 -3.36418
R_Calf  13.7443 2.40746 7.44762
R_Foot  -1.96382 -7.48114 -1.04615
R_Toe0  4.63201 -0.685565 -13.6704
166
root  -0.141662 32.0005 68.0802 18.4984 2.87117 87.2129
Spine  -3.41288 -5.96947 -9.06848
Spine1  -1.39829 9.96401 13.3003
Neck  3.97569e-016 0 -2.38542e-015
Head  9.29154 -5.13045 12.7693
R_Clavicle  0.348405 -16.9654 0.625261
R_UpperArm  4.08907 1.27002 22.9295
R_Forearm  35.5937 -24.4955 20.3608
R_Hand  -1.69057 9.75596 -23.9054
L_Clavicle  -0.478269 16.4248 -3.38856
L_UpperArm  -3.45599 -8.73076 9.75671
L_Forearm  -17.5401 22.3759 28.3769
L_Hand  -0.148336 -3.04868 -7.01864
L_Thigh  -20.4235 8.30611 4.96133
L_Calf  4.65609 -2.34874 17.5347
L_Foot  1.58565 6.44814 -0.00718087
L_Toe0  0.505156 0.034446 -6.1361
R_Thigh  0.886338 1.40988 -0.313905
R_Calf  16.6588 0.50413 1.52559
R_Foot  -2.01279 -6.56874 0.7395
R_Toe0  -1.74972 -0.227255 -17.307
